<svg xmlns="http://www.w3.org/2000/svg" viewBox="0 0 24 24"><path fill="#AAA" d="M5 8h14c1.7 0 3-1.3 3-3s-1.3-3-3-3H5C3.3 2 2 3.3 2 5s1.3 3 3 3zm13-4.4c.8 0 1.5.7 1.5 1.5s-.7 1.5-1.5 1.5-1.5-.7-1.5-1.5.7-1.5 1.5-1.5zM19 9H5c-1.7 0-3 1.3-3 3s1.3 3 3 3h14c1.7 0 3-1.3 3-3s-1.3-3-3-3zm-1 4.6c-.8 0-1.5-.7-1.5-1.5s.7-1.5 1.5-1.5 1.5.7 1.5 1.5-.7 1.5-1.5 1.5zm1 2.4H5c-1.7 0-3 1.3-3 3s1.3 3 3 3h14c1.7 0 3-1.3 3-3s-1.3-3-3-3zm-1 4.6c-.8 0-1.5-.7-1.5-1.5s.7-1.5 1.5-1.5 1.5.7 1.5 1.5-.7 1.5-1.5 1.5z"/></svg>
